<svg xmlns="http://www.w3.org/2000/svg" viewBox="0 0 268.8 268.8"><path d="M267.9 119.5c-.4-3.8-4.8-6.6-8.6-6.6-12.3 0-23.2-7.2-27.8-18.4-4.7-11.5-1.7-24.8 7.5-33.2 2.9-2.6 3.2-7.1.8-10.1-6.3-8-13.5-15.2-21.3-21.5-3.1-2.5-7.6-2.1-10.2.8-8 8.9-22.4 12.2-33.5 7.5-11.6-4.9-18.9-16.6-18.2-29.2.2-4-2.7-7.4-6.6-7.8-10-1.2-20.2-1.2-30.2-.1-3.9.4-6.8 3.8-6.7 7.7.4 12.5-6.9 24-18.4 28.7-11 4.5-25.3 1.2-33.3-7.6-2.6-2.9-7.1-3.3-10.1-.9-8.1 6.3-15.4 13.6-21.7 21.5-2.5 3.1-2.1 7.6.8 10.2C39.8 69 42.8 82.4 37.9 94c-4.6 11-16.1 18.2-29.2 18.2-4.3-.1-7.3 2.7-7.8 6.6-1.2 10.1-1.2 20.4-.1 30.6.4 3.8 5 6.6 8.8 6.6 11.7-.3 22.9 6.9 27.6 18.4 4.7 11.5 1.7 24.8-7.5 33.2-2.9 2.6-3.2 7.1-.8 10.1 6.2 8 13.4 15.2 21.3 21.5 3.1 2.5 7.6 2.1 10.2-.8 8-8.9 22.4-12.2 33.5-7.5 11.6 4.9 18.9 16.6 18.2 29.2-.2 4 2.7 7.4 6.6 7.9 5.1.6 10.3.9 15.5.9 4.9 0 9.8-.3 14.8-.8 3.9-.4 6.8-3.8 6.7-7.7-.5-12.5 6.9-24 18.4-28.7 11.1-4.5 25.3-1.2 33.3 7.6 2.7 2.9 7 3.2 10.1.8 8-6.3 15.3-13.5 21.7-21.5 2.5-3.1 2.1-7.6-.8-10.2-9.4-8.5-12.4-21.9-7.5-33.5 4.6-10.9 15.6-18.2 27.5-18.2h1.7c3.9.3 7.4-2.7 7.9-6.6 1-10.2 1.1-20.5-.1-30.6zm-133.3 60c-24.7 0-44.8-20.1-44.8-44.8 0-24.7 20.1-44.8 44.8-44.8 24.7 0 44.8 20.1 44.8 44.8 0 24.7-20.1 44.8-44.8 44.8z"/></svg>